<?xml version="1.0" encoding="UTF-8" standalone="no"?>
<!DOCTYPE svg PUBLIC "-//W3C//DTD SVG 1.1//EN"
 "http://www.w3.org/Graphics/SVG/1.1/DTD/svg11.dtd">
<!-- Generated by graphviz version 14.1.3 (20260303.0454)
 -->
<!-- Title: Calls Pages: 1 -->
<svg width="1470pt" height="1155pt"
 viewBox="0.00 0.00 1470.00 1155.00" xmlns="http://www.w3.org/2000/svg" xmlns:xlink="http://www.w3.org/1999/xlink">
<g id="graph0" class="graph" transform="scale(1 1) rotate(0) translate(4 1151)">
<title>Calls</title>
<polygon fill="white" stroke="none" points="-4,4 -4,-1151 1466.43,-1151 1466.43,4 -4,4"/>
<text xml:space="preserve" text-anchor="middle" x="731.21" y="-1130.4" font-family="Arial" font-size="14.00">Вызовы и данные: вариант с отдельным PolygonProcessor</text>
<g id="clust1" class="cluster">
<title>cluster_processor</title>
<polygon fill="none" stroke="#a80000" points="395,-8 395,-779.12 1158,-779.12 1158,-8 395,-8"/>
<text xml:space="preserve" text-anchor="middle" x="776.5" y="-762.52" font-family="Arial" font-size="14.00">polygonProcessor / PolysHandler</text>
</g>
<g id="clust2" class="cluster">
<title>cluster_renderer</title>
<polygon fill="none" stroke="#398b85" points="8,-184.08 8,-510.64 309,-510.64 309,-184.08 8,-184.08"/>
<text xml:space="preserve" text-anchor="middle" x="158.5" y="-494.04" font-family="Arial" font-size="14.00">Renderer</text>
</g>
<!-- user -->
<g id="node1" class="node">
<title>user</title>
<path fill="none" stroke="black" d="M674.58,-1122.2C674.58,-1122.2 603.42,-1122.2 603.42,-1122.2 597.42,-1122.2 591.42,-1116.2 591.42,-1110.2 591.42,-1110.2 591.42,-1098.2 591.42,-1098.2 591.42,-1092.2 597.42,-1086.2 603.42,-1086.2 603.42,-1086.2 674.58,-1086.2 674.58,-1086.2 680.58,-1086.2 686.58,-1092.2 686.58,-1098.2 686.58,-1098.2 686.58,-1110.2 686.58,-1110.2 686.58,-1116.2 680.58,-1122.2 674.58,-1122.2"/>
<text xml:space="preserve" text-anchor="middle" x="639" y="-1100" font-family="Arial" font-size="14.00">user / main</text>
</g>
<!-- parser -->
<g id="node2" class="node">
<title>parser</title>
<path fill="none" stroke="black" d="M602.58,-1011.4C602.58,-1011.4 559.42,-1011.4 559.42,-1011.4 553.42,-1011.4 547.42,-1005.4 547.42,-999.4 547.42,-999.4 547.42,-987.4 547.42,-987.4 547.42,-981.4 553.42,-975.4 559.42,-975.4 559.42,-975.4 602.58,-975.4 602.58,-975.4 608.58,-975.4 614.58,-981.4 614.58,-987.4 614.58,-987.4 614.58,-999.4 614.58,-999.4 614.58,-1005.4 608.58,-1011.4 602.58,-1011.4"/>
<text xml:space="preserve" text-anchor="middle" x="581" y="-989.2" font-family="Arial" font-size="14.00">Parser</text>
</g>
<!-- user&#45;&gt;parser -->
<g id="edge1" class="edge">
<title>user&#45;&gt;parser</title>
<path fill="none" stroke="black" d="M610.82,-1085.86C601.06,-1078.32 591.15,-1068.59 585.42,-1057.2 580.23,-1046.87 578.57,-1034.36 578.42,-1023.23"/>
<polygon fill="black" stroke="black" points="581.91,-1023.48 578.7,-1013.38 574.91,-1023.28 581.91,-1023.48"/>
<text xml:space="preserve" text-anchor="middle" x="621.21" y="-1044.6" font-family="Arial" font-size="14.00">1. parse(...)</text>
</g>
<!-- coordinator -->
<g id="node4" class="node">
<title>coordinator</title>
<path fill="none" stroke="black" d="M705.65,-746.32C705.65,-746.32 470.35,-746.32 470.35,-746.32 464.35,-746.32 458.35,-740.32 458.35,-734.32 458.35,-734.32 458.35,-623.44 458.35,-623.44 458.35,-617.44 464.35,-611.44 470.35,-611.44 470.35,-611.44 705.65,-611.44 705.65,-611.44 711.65,-611.44 717.65,-617.44 717.65,-623.44 717.65,-623.44 717.65,-734.32 717.65,-734.32 717.65,-740.32 711.65,-746.32 705.65,-746.32"/>
<text xml:space="preserve" text-anchor="middle" x="588" y="-725.08" font-family="Arial" font-size="14.00">PolygonProcessor</text>
<text xml:space="preserve" text-anchor="middle" x="588" y="-708.28" font-family="Arial" font-size="14.00">────────────────────</text>
<text xml:space="preserve" text-anchor="middle" x="588" y="-691.48" font-family="Arial" font-size="14.00">PolyWorld world_</text>
<text xml:space="preserve" text-anchor="middle" x="588" y="-674.68" font-family="Arial" font-size="14.00">Renderer renderer_</text>
<text xml:space="preserve" text-anchor="middle" x="588" y="-657.88" font-family="Arial" font-size="14.00">────────────────────</text>
<text xml:space="preserve" text-anchor="middle" x="588" y="-641.08" font-family="Arial" font-size="14.00">calculateIntersections()</text>
<text xml:space="preserve" text-anchor="middle" x="588" y="-624.28" font-family="Arial" font-size="14.00">drawPolys()</text>
</g>
<!-- user&#45;&gt;coordinator -->
<g id="edge5" class="edge">
<title>user&#45;&gt;coordinator</title>
<path fill="none" stroke="black" d="M650.45,-1086.08C655.35,-1077.74 660.51,-1067.35 663,-1057.2 691.58,-940.62 699.06,-901.61 663,-787.12 659.7,-776.64 654.97,-766.29 649.46,-756.39"/>
<polygon fill="black" stroke="black" points="652.59,-754.8 644.49,-747.97 646.56,-758.36 652.59,-754.8"/>
<text xml:space="preserve" text-anchor="middle" x="767.08" y="-933.8" font-family="Arial" font-size="14.00">3. calculateIntersections()</text>
<text xml:space="preserve" text-anchor="middle" x="767.08" y="-917" font-family="Arial" font-size="14.00">4. drawPolys()</text>
</g>
<!-- input -->
<g id="node3" class="node">
<title>input</title>
<path fill="none" stroke="black" d="M592.53,-883.8C592.53,-883.8 419.47,-883.8 419.47,-883.8 413.47,-883.8 407.47,-877.8 407.47,-871.8 407.47,-871.8 407.47,-844.92 407.47,-844.92 407.47,-838.92 413.47,-832.92 419.47,-832.92 419.47,-832.92 592.53,-832.92 592.53,-832.92 598.53,-832.92 604.53,-838.92 604.53,-844.92 604.53,-844.92 604.53,-871.8 604.53,-871.8 604.53,-877.8 598.53,-883.8 592.53,-883.8"/>
<text xml:space="preserve" text-anchor="middle" x="506" y="-862.56" font-family="Arial" font-size="14.00">InitPolysData</text>
<text xml:space="preserve" text-anchor="middle" x="506" y="-845.76" font-family="Arial" font-size="14.00">списки вершин полигонов</text>
</g>
<!-- parser&#45;&gt;input -->
<g id="edge2" class="edge">
<title>parser&#45;&gt;input</title>
<path fill="none" stroke="black" d="M571.2,-975.01C559.63,-954.49 540.12,-919.88 525.45,-893.86"/>
<polygon fill="black" stroke="black" points="528.59,-892.31 520.63,-885.32 522.5,-895.75 528.59,-892.31"/>
<text xml:space="preserve" text-anchor="middle" x="589.61" y="-925.4" font-family="Arial" font-size="14.00">результат</text>
</g>
<!-- input&#45;&gt;coordinator -->
<g id="edge3" class="edge">
<title>input&#45;&gt;coordinator</title>
<path fill="none" stroke="black" d="M488.75,-832.71C481.42,-819.12 475.84,-802.02 481.96,-787.12 486.53,-775.99 492.88,-765.41 500.21,-755.53"/>
<polygon fill="black" stroke="black" points="502.83,-757.86 506.27,-747.84 497.33,-753.53 502.83,-757.86"/>
<text xml:space="preserve" text-anchor="middle" x="569.48" y="-791.32" font-family="Arial" font-size="14.00">2. параметр конструктора</text>
</g>
<!-- world -->
<g id="node5" class="node">
<title>world</title>
<path fill="none" stroke="black" d="M832.88,-519.84C832.88,-519.84 585.12,-519.84 585.12,-519.84 579.12,-519.84 573.12,-513.84 573.12,-507.84 573.12,-507.84 573.12,-396.96 573.12,-396.96 573.12,-390.96 579.12,-384.96 585.12,-384.96 585.12,-384.96 832.88,-384.96 832.88,-384.96 838.88,-384.96 844.88,-390.96 844.88,-396.96 844.88,-396.96 844.88,-507.84 844.88,-507.84 844.88,-513.84 838.88,-519.84 832.88,-519.84"/>
<text xml:space="preserve" text-anchor="middle" x="709" y="-498.6" font-family="Arial" font-size="14.00">PolyWorld — объект world_</text>
<text xml:space="preserve" text-anchor="middle" x="709" y="-481.8" font-family="Arial" font-size="14.00">────────────────────</text>
<text xml:space="preserve" text-anchor="middle" x="709" y="-465" font-family="Arial" font-size="14.00">vector&lt;Poly&gt; polys_</text>
<text xml:space="preserve" text-anchor="middle" x="709" y="-448.2" font-family="Arial" font-size="14.00">IntersectionData intersectionData</text>
<text xml:space="preserve" text-anchor="middle" x="709" y="-431.4" font-family="Arial" font-size="14.00">────────────────────</text>
<text xml:space="preserve" text-anchor="middle" x="709" y="-414.6" font-family="Arial" font-size="14.00">конструктор принимает InitPolysData</text>
<text xml:space="preserve" text-anchor="middle" x="709" y="-397.8" font-family="Arial" font-size="14.00">calculateIntersections()</text>
</g>
<!-- coordinator&#45;&gt;world -->
<g id="edge4" class="edge">
<title>coordinator&#45;&gt;world</title>
<path fill="none" stroke="black" d="M458.07,-614.61C435.75,-595.32 424.49,-572.81 441.39,-548.84 469.42,-509.09 515.55,-485.81 561.69,-472.19"/>
<polygon fill="black" stroke="black" points="562.62,-475.57 571.31,-469.51 560.74,-468.82 562.62,-475.57"/>
<text xml:space="preserve" text-anchor="middle" x="515.7" y="-569.84" font-family="Arial" font-size="14.00">передать InitPolysData</text>
<text xml:space="preserve" text-anchor="middle" x="515.7" y="-553.04" font-family="Arial" font-size="14.00">при создании world_</text>
</g>
<!-- coordinator&#45;&gt;world -->
<g id="edge6" class="edge">
<title>coordinator&#45;&gt;world</title>
<path fill="none" stroke="black" d="M610.22,-611.03C618.04,-590.56 627.6,-568.31 638.35,-548.84 641.9,-542.41 645.83,-535.93 649.96,-529.53"/>
<polygon fill="black" stroke="black" points="652.69,-531.75 655.31,-521.48 646.86,-527.87 652.69,-531.75"/>
<text xml:space="preserve" text-anchor="middle" x="740.68" y="-561.44" font-family="Arial" font-size="14.00">3. world_.calculateIntersections()</text>
</g>
<!-- renderer -->
<g id="node8" class="node">
<title>renderer</title>
<path fill="none" stroke="black" d="M222.44,-477.84C222.44,-477.84 27.56,-477.84 27.56,-477.84 21.56,-477.84 15.56,-471.84 15.56,-465.84 15.56,-465.84 15.56,-438.96 15.56,-438.96 15.56,-432.96 21.56,-426.96 27.56,-426.96 27.56,-426.96 222.44,-426.96 222.44,-426.96 228.44,-426.96 234.44,-432.96 234.44,-438.96 234.44,-438.96 234.44,-465.84 234.44,-465.84 234.44,-471.84 228.44,-477.84 222.44,-477.84"/>
<text xml:space="preserve" text-anchor="middle" x="125" y="-456.6" font-family="Arial" font-size="14.00">Объект renderer_</text>
<text xml:space="preserve" text-anchor="middle" x="125" y="-439.8" font-family="Arial" font-size="14.00">drawPolys(polys, intersections)</text>
</g>
<!-- coordinator&#45;&gt;renderer -->
<g id="edge11" class="edge">
<title>coordinator&#45;&gt;renderer</title>
<path fill="none" stroke="black" d="M458,-665.33C344.73,-651.66 192.16,-625.75 149.88,-582.44 126.14,-558.12 121.6,-518.41 121.96,-489.45"/>
<polygon fill="black" stroke="black" points="125.45,-489.79 122.3,-479.68 118.46,-489.55 125.45,-489.79"/>
<text xml:space="preserve" text-anchor="middle" x="286.44" y="-561.44" font-family="Arial" font-size="14.00">4. renderer_.drawPolys(polys, intersections)</text>
</g>
<!-- world&#45;&gt;coordinator -->
<g id="edge10" class="edge">
<title>world&#45;&gt;coordinator</title>
<path fill="none" stroke="black" stroke-dasharray="5,2" d="M836.28,-520.08C855.64,-538.74 864.62,-560.09 849,-582.44 821.17,-622.25 774.86,-645.51 728.91,-659.08"/>
<polygon fill="black" stroke="black" points="728.03,-655.69 719.34,-661.75 729.91,-662.43 728.03,-655.69"/>
<text xml:space="preserve" text-anchor="middle" x="984.17" y="-569.84" font-family="Arial" font-size="14.00">предоставить polys_ и intersectionData</text>
<text xml:space="preserve" text-anchor="middle" x="984.17" y="-553.04" font-family="Arial" font-size="14.00">интерфейс чтения ещё не добавлен</text>
</g>
<!-- calculator -->
<g id="node6" class="node">
<title>calculator</title>
<path fill="none" stroke="black" d="M1137.56,-293.36C1137.56,-293.36 838.44,-293.36 838.44,-293.36 832.44,-293.36 826.44,-287.36 826.44,-281.36 826.44,-281.36 826.44,-204.08 826.44,-204.08 826.44,-198.08 832.44,-192.08 838.44,-192.08 838.44,-192.08 1137.56,-192.08 1137.56,-192.08 1143.56,-192.08 1149.56,-198.08 1149.56,-204.08 1149.56,-204.08 1149.56,-281.36 1149.56,-281.36 1149.56,-287.36 1143.56,-293.36 1137.56,-293.36"/>
<text xml:space="preserve" text-anchor="middle" x="988" y="-272.12" font-family="Arial" font-size="14.00">PolyCalculator — локальный calculator</text>
<text xml:space="preserve" text-anchor="middle" x="988" y="-255.32" font-family="Arial" font-size="14.00">calculateIntersections(polys)</text>
<text xml:space="preserve" text-anchor="middle" x="988" y="-238.52" font-family="Arial" font-size="14.00">────────────────────</text>
<text xml:space="preserve" text-anchor="middle" x="988" y="-221.72" font-family="Arial" font-size="14.00">перебрать пары → IntersectsPoly(first, second)</text>
<text xml:space="preserve" text-anchor="middle" x="988" y="-204.92" font-family="Arial" font-size="14.00">→ собрать IntersectionData</text>
</g>
<!-- world&#45;&gt;calculator -->
<g id="edge7" class="edge">
<title>world&#45;&gt;calculator</title>
<path fill="none" stroke="black" d="M798.81,-384.55C835.22,-357.44 876.83,-326.47 911.74,-300.49"/>
<polygon fill="black" stroke="black" points="913.78,-303.33 919.71,-294.55 909.6,-297.72 913.78,-303.33"/>
<text xml:space="preserve" text-anchor="middle" x="1003.08" y="-343.36" font-family="Arial" font-size="14.00">создать calculator</text>
<text xml:space="preserve" text-anchor="middle" x="1003.08" y="-326.56" font-family="Arial" font-size="14.00">вызвать calculateIntersections(polys_)</text>
</g>
<!-- result -->
<g id="node7" class="node">
<title>result</title>
<path fill="none" stroke="black" d="M849.18,-117.28C849.18,-117.28 564.82,-117.28 564.82,-117.28 558.82,-117.28 552.82,-111.28 552.82,-105.28 552.82,-105.28 552.82,-28 552.82,-28 552.82,-22 558.82,-16 564.82,-16 564.82,-16 849.18,-16 849.18,-16 855.18,-16 861.18,-22 861.18,-28 861.18,-28 861.18,-105.28 861.18,-105.28 861.18,-111.28 855.18,-117.28 849.18,-117.28"/>
<text xml:space="preserve" text-anchor="middle" x="707" y="-96.04" font-family="Arial" font-size="14.00">IntersectionData</text>
<text xml:space="preserve" text-anchor="middle" x="707" y="-79.24" font-family="Arial" font-size="14.00">────────────────────</text>
<text xml:space="preserve" text-anchor="middle" x="707" y="-62.44" font-family="Arial" font-size="14.00">Entry {индекс A, индекс B, PolyIntersection}</text>
<text xml:space="preserve" text-anchor="middle" x="707" y="-45.64" font-family="Arial" font-size="14.00">Entry {индекс C, индекс D, PolyIntersection}</text>
<text xml:space="preserve" text-anchor="middle" x="707" y="-28.84" font-family="Arial" font-size="14.00">...</text>
</g>
<!-- calculator&#45;&gt;result -->
<g id="edge8" class="edge">
<title>calculator&#45;&gt;result</title>
<path fill="none" stroke="black" d="M907.1,-191.6C872.72,-170.3 832.49,-145.38 797.16,-123.5"/>
<polygon fill="black" stroke="black" points="799.45,-120.79 789.1,-118.5 795.76,-126.74 799.45,-120.79"/>
<text xml:space="preserve" text-anchor="middle" x="920.1" y="-150.48" font-family="Arial" font-size="14.00">вернуть результат</text>
</g>
<!-- result&#45;&gt;world -->
<g id="edge9" class="edge">
<title>result&#45;&gt;world</title>
<path fill="none" stroke="black" d="M657.6,-117.55C641.86,-136.73 626.43,-159.88 618.26,-184.08 602.73,-230.1 605.75,-246.43 618.26,-293.36 625.82,-321.7 639.8,-350.23 654.56,-375.11"/>
<polygon fill="black" stroke="black" points="651.49,-376.8 659.68,-383.52 657.47,-373.16 651.49,-376.8"/>
<text xml:space="preserve" text-anchor="middle" x="711.63" y="-238.52" font-family="Arial" font-size="14.00">сохранить в intersectionData</text>
</g>
<!-- scene -->
<g id="node9" class="node">
<title>scene</title>
<path fill="none" stroke="black" d="M263.65,-293.36C263.65,-293.36 28.35,-293.36 28.35,-293.36 22.35,-293.36 16.35,-287.36 16.35,-281.36 16.35,-281.36 16.35,-204.08 16.35,-204.08 16.35,-198.08 22.35,-192.08 28.35,-192.08 28.35,-192.08 263.65,-192.08 263.65,-192.08 269.65,-192.08 275.65,-198.08 275.65,-204.08 275.65,-204.08 275.65,-281.36 275.65,-281.36 275.65,-287.36 269.65,-293.36 263.65,-293.36"/>
<text xml:space="preserve" text-anchor="middle" x="146" y="-272.12" font-family="Arial" font-size="14.00">Scene</text>
<text xml:space="preserve" text-anchor="middle" x="146" y="-255.32" font-family="Arial" font-size="14.00">────────────────────</text>
<text xml:space="preserve" text-anchor="middle" x="146" y="-238.52" font-family="Arial" font-size="14.00">Objects objects_</text>
<text xml:space="preserve" text-anchor="middle" x="146" y="-221.72" font-family="Arial" font-size="14.00">Camera camera_</text>
<text xml:space="preserve" text-anchor="middle" x="146" y="-204.92" font-family="Arial" font-size="14.00">Lighting lighting_</text>
</g>
<!-- renderer&#45;&gt;scene -->
<g id="edge12" class="edge">
<title>renderer&#45;&gt;scene</title>
<path fill="none" stroke="black" d="M127.49,-426.76C130.5,-396.97 135.68,-345.76 139.8,-305.07"/>
<polygon fill="black" stroke="black" points="143.28,-305.44 140.8,-295.14 136.31,-304.73 143.28,-305.44"/>
<text xml:space="preserve" text-anchor="middle" x="258.97" y="-343.36" font-family="Arial" font-size="14.00">обновить Objects и нарисовать кадр</text>
<text xml:space="preserve" text-anchor="middle" x="258.97" y="-326.56" font-family="Arial" font-size="14.00">с текущими Camera и Lighting</text>
</g>
<!-- geometry -->
<g id="node10" class="node">
<title>geometry</title>
<path fill="none" stroke="black" d="M1330.31,-704.32C1330.31,-704.32 1253.69,-704.32 1253.69,-704.32 1247.69,-704.32 1241.69,-698.32 1241.69,-692.32 1241.69,-692.32 1241.69,-665.44 1241.69,-665.44 1241.69,-659.44 1247.69,-653.44 1253.69,-653.44 1253.69,-653.44 1330.31,-653.44 1330.31,-653.44 1336.31,-653.44 1342.31,-659.44 1342.31,-665.44 1342.31,-665.44 1342.31,-692.32 1342.31,-692.32 1342.31,-698.32 1336.31,-704.32 1330.31,-704.32"/>
<text xml:space="preserve" text-anchor="middle" x="1292" y="-683.08" font-family="Arial" font-size="14.00">geometry</text>
<text xml:space="preserve" text-anchor="middle" x="1292" y="-666.28" font-family="Arial" font-size="14.00">Poly и Point</text>
</g>
<!-- geometry&#45;&gt;world -->
<g id="edge13" class="edge">
<title>geometry&#45;&gt;world</title>
<path fill="none" stroke="black" stroke-dasharray="5,2" d="M1266.47,-653.04C1234.89,-623.72 1178.28,-575.6 1121,-548.84 1037.61,-509.88 937.1,-486.2 856.23,-472.16"/>
<polygon fill="black" stroke="black" points="856.89,-468.72 846.45,-470.5 855.72,-475.63 856.89,-468.72"/>
<text xml:space="preserve" text-anchor="middle" x="1248.78" y="-561.44" font-family="Arial" font-size="14.00">геометрические типы</text>
</g>
<!-- geometry&#45;&gt;calculator -->
<g id="edge14" class="edge">
<title>geometry&#45;&gt;calculator</title>
<path fill="none" stroke="black" stroke-dasharray="5,2" d="M1308.99,-653.31C1324.9,-627.11 1344.37,-584.57 1331,-548.84 1284.26,-423.89 1238.2,-405.67 1134,-322.36 1123.99,-314.35 1113.04,-306.75 1101.79,-299.66"/>
<polygon fill="black" stroke="black" points="1103.92,-296.86 1093.56,-294.61 1100.26,-302.83 1103.92,-296.86"/>
<text xml:space="preserve" text-anchor="middle" x="1390.47" y="-448.2" font-family="Arial" font-size="14.00">геометрические типы</text>
</g>
</g>
</svg>
